Coordinates
version=1
nRows=21
nColumns=12
inDegrees=yes

Units are S.I. units (second, meters, Newtons, ...)
Angles are in degrees

endheader
time	SC_y	SC_z	SC_x	AC_y	AC_z	AC_x	GH_y	GH_z	GH_yy	EL_x	PS_y
       0.0              -26.59          15.91           19.3           61.0         -5.967          14.73         -97.44          5.589          18.05          7.074          129.6
   0.04906               -26.6          15.91           19.3           61.0         -5.968          14.73         -97.44          5.593          18.06          7.085          129.5
   0.09812               -26.6          15.91           19.3           61.0         -5.969          14.73         -97.44          5.598          18.08          7.098          129.5
    0.1472               -26.6          15.91           19.3           61.0         -5.971          14.73         -97.44          5.603          18.09          7.112          129.5
    0.1962               -26.6           15.9           19.3           61.0         -5.972          14.72         -97.44          5.609          18.11          7.126          129.5
    0.2453              -26.61           15.9           19.3           61.0         -5.974          14.72         -97.44          5.615          18.13          7.141          129.5
    0.2944              -26.61           15.9           19.3           61.0         -5.975          14.72         -97.44          5.621          18.15          7.157          129.5
    0.3434              -26.61          15.89           19.3          60.99         -5.977          14.72         -97.44          5.628          18.17          7.175          129.5
    0.3925              -26.62          15.89           19.3          60.99         -5.979          14.72         -97.44          5.635          18.19          7.193          129.4
    0.4415              -26.62          15.88           19.3          60.99         -5.981          14.72         -97.44          5.642          18.22          7.213          129.4
    0.4906              -26.63          15.88           19.3          60.99         -5.983          14.72         -97.44          5.651          18.24          7.235          129.4
    0.5397              -26.63          15.87           19.3          60.99         -5.985          14.72         -97.44           5.66          18.27          7.258          129.4
    0.5887              -26.64          15.87           19.3          60.98         -5.988          14.72         -97.44          5.669           18.3          7.283          129.3
    0.6378              -26.64          15.86           19.3          60.98          -5.99          14.72         -97.44          5.679          18.33           7.31          129.3
    0.6868              -26.65          15.85          19.31          60.98         -5.993          14.71         -97.44          5.691          18.37          7.339          129.3
    0.7359              -26.65          15.85          19.31          60.97         -5.996          14.71         -97.44          5.703           18.4          7.371          129.2
     0.785              -26.66          15.84          19.31          60.97           -6.0          14.71         -97.44          5.716          18.45          7.405          129.2
     0.834              -26.67          15.83          19.31          60.97         -6.004          14.71         -97.44           5.73          18.49          7.443          129.2
    0.8831              -26.68          15.82          19.31          60.96         -6.008          14.71         -97.44          5.746          18.54          7.483          129.1
    0.9321              -26.69          15.81          19.31          60.96         -6.012           14.7         -97.44          5.763          18.59          7.528          129.1
    0.9812               -26.7           15.8          19.31          60.95         -6.017           14.7         -97.44          5.782          18.65          7.577          129.0
